<svg xmlns="http://www.w3.org/2000/svg" width="21.8" height="21.8" viewBox="0 0 21.8 21.8">
  <g id="Group_26" data-name="Group 26" transform="translate(-477.85 -131.85)">
    <path id="note-text" d="M11.566,1.25h.868c1.651,0,2.937,0,3.968.084a6.957,6.957,0,0,1,2.662.652,6.75,6.75,0,0,1,2.95,2.95A6.957,6.957,0,0,1,22.666,7.6c.084,1.031.084,2.317.084,3.968v3.629c0,.315,0,.5-.01.685a6.75,6.75,0,0,1-1.715,4.142c-.123.136-.255.269-.478.492l-.017.016-.016.017c-.223.223-.356.355-.492.478a6.75,6.75,0,0,1-4.141,1.715c-.183.01-.37.01-.686.01H11.566c-1.651,0-2.937,0-3.968-.084a6.957,6.957,0,0,1-2.662-.652,6.75,6.75,0,0,1-2.95-2.95A6.957,6.957,0,0,1,1.334,16.4c-.084-1.031-.084-2.317-.084-3.968v-.868c0-1.651,0-2.937.084-3.968a6.957,6.957,0,0,1,.652-2.662,6.75,6.75,0,0,1,2.95-2.95A6.957,6.957,0,0,1,7.6,1.334c1.031-.084,2.317-.084,3.968-.084ZM7.72,2.83a5.483,5.483,0,0,0-2.1.492A5.25,5.25,0,0,0,3.322,5.617a5.5,5.5,0,0,0-.493,2.1c-.078.963-.079,2.187-.079,3.88v.8c0,1.692,0,2.917.08,3.88a5.483,5.483,0,0,0,.492,2.1,5.25,5.25,0,0,0,2.3,2.3,5.5,5.5,0,0,0,2.1.493c.963.078,2.187.079,3.88.079h3.65V19.17c0-.535,0-.98.03-1.345a2.781,2.781,0,0,1,.27-1.073,2.751,2.751,0,0,1,1.2-1.2,2.791,2.791,0,0,1,1.074-.27c.365-.03.81-.03,1.345-.03h2.08V11.6c0-1.693,0-2.917-.08-3.88a5.483,5.483,0,0,0-.492-2.1,5.25,5.25,0,0,0-2.3-2.295,5.5,5.5,0,0,0-2.1-.493c-.963-.078-2.188-.079-3.88-.079h-.8c-1.693,0-2.917,0-3.88.08Zm11.3,17.078A5.25,5.25,0,0,1,16.75,21.1V19.2c0-.572,0-.957.025-1.253a1.349,1.349,0,0,1,.111-.514,1.25,1.25,0,0,1,.547-.547,1.351,1.351,0,0,1,.515-.111c.3-.024.68-.025,1.252-.025h1.9a5.25,5.25,0,0,1-1.195,2.27c-.092.1-.194.206-.438.45s-.347.346-.45.438ZM7,6.25a.75.75,0,0,0,0,1.5h8a.75.75,0,1,0,0-1.5ZM6.25,11A.75.75,0,0,1,7,10.25h6a.75.75,0,0,1,0,1.5H7A.75.75,0,0,1,6.25,11ZM7,14.25a.75.75,0,0,0,0,1.5H9a.75.75,0,0,0,0-1.5Z" transform="translate(476.75 130.75)" fill="#5ca062" stroke="#5ca062" stroke-width="0.3" fill-rule="evenodd"/>
  </g>
</svg>
