<svg xmlns="http://www.w3.org/2000/svg" width="22" height="18" viewBox="0 0 22 18">
  <g id="envolop" transform="translate(-382 -49)">
    <path id="Path_20" data-name="Path 20" d="M4,3H20a3,3,0,0,1,3,3V18a3,3,0,0,1-3,3H4a3,3,0,0,1-3-3V6A3,3,0,0,1,4,3ZM20,19a1,1,0,0,0,1-1V6a1,1,0,0,0-1-1H4A1,1,0,0,0,3,6V18a1,1,0,0,0,1,1Z" transform="translate(381 46)" fill="#fd8585"/>
    <path id="Path_21" data-name="Path 21" d="M12,14a1,1,0,0,1-.573-.181l-10-7A1,1,0,0,1,2.573,5.181L12,11.779l9.427-6.6a1,1,0,0,1,1.147,1.638l-10,7A1,1,0,0,1,12,14Z" transform="translate(381 46)" fill="#fd8585"/>
  </g>
</svg>
