<svg xmlns="http://www.w3.org/2000/svg" width="16.965" height="16.861" viewBox="0 0 16.965 16.861">
  <g id="invoice" transform="translate(0 -1.568)">
    <g id="Group_10" data-name="Group 10" transform="translate(2.869 17.181)">
      <g id="Group_9" data-name="Group 9">
        <rect id="Rectangle_13" data-name="Rectangle 13" width="10.977" height="1.247" fill="#b49279"/>
      </g>
    </g>
    <g id="Group_12" data-name="Group 12" transform="translate(5.863 7.139)">
      <g id="Group_11" data-name="Group 11">
        <path id="Path_16" data-name="Path 16" d="M181.411,169.726h-3.846a.624.624,0,0,0,0,1.247h3.846a.624.624,0,1,0,0-1.247Z" transform="translate(-176.941 -169.726)" fill="#b49279"/>
      </g>
    </g>
    <g id="Group_14" data-name="Group 14" transform="translate(5.863 10.05)">
      <g id="Group_13" data-name="Group 13">
        <path id="Path_17" data-name="Path 17" d="M184.322,257.569h-6.757a.624.624,0,1,0,0,1.247h6.757a.624.624,0,0,0,0-1.247Z" transform="translate(-176.941 -257.569)" fill="#b49279"/>
      </g>
    </g>
    <g id="Group_16" data-name="Group 16" transform="translate(0 1.568)">
      <g id="Group_15" data-name="Group 15" transform="translate(0 0)">
        <path id="Path_18" data-name="Path 18" d="M16.6,1.643a.624.624,0,0,0-.669.1L14.181,3.29,12.433,1.726a.623.623,0,0,0-.832,0L9.855,3.288,8.108,1.726a.623.623,0,0,0-.831,0L5.528,3.29,3.781,1.745a.624.624,0,0,0-1.037.467v11.1H.624A.624.624,0,0,0,0,13.938v1.518a2.976,2.976,0,0,0,2.973,2.973V17.181a1.728,1.728,0,0,1-1.726-1.726v-.894h9.771v.894a2.973,2.973,0,1,0,5.946,0V2.212A.624.624,0,0,0,16.6,1.643Zm-.88,13.812a1.726,1.726,0,0,1-3.451,0V13.938a.624.624,0,0,0-.624-.624H3.992V3.6l1.125,1a.624.624,0,0,0,.829,0L7.692,3.028,9.439,4.59a.623.623,0,0,0,.832,0l1.747-1.562L13.763,4.59a.624.624,0,0,0,.829,0l1.125-1Z" transform="translate(0 -1.568)" fill="#b49279"/>
      </g>
    </g>
  </g>
</svg>
