<svg xmlns="http://www.w3.org/2000/svg" width="25.931" height="25.931" viewBox="0 0 25.931 25.931">
  <path id="location-target_" data-name="location-target)" d="M12.966,10.075a3.89,3.89,0,1,0,2.75,1.139A3.89,3.89,0,0,0,12.966,10.075Zm0,5.186a1.3,1.3,0,1,1,.917-.38A1.3,1.3,0,0,1,12.966,15.261Zm11.669-2.593H23.247a10.372,10.372,0,0,0-8.985-8.985V2.3a1.3,1.3,0,1,0-2.593,0V3.683a10.372,10.372,0,0,0-8.985,8.985H1.3a1.3,1.3,0,0,0,0,2.593H2.684a10.372,10.372,0,0,0,8.985,8.985v1.387a1.3,1.3,0,0,0,2.593,0V24.246a10.373,10.373,0,0,0,8.985-8.985h1.387a1.3,1.3,0,1,0,0-2.593ZM14.262,21.627a1.3,1.3,0,0,0-2.593,0A7.779,7.779,0,0,1,5.3,15.261a1.3,1.3,0,1,0,0-2.593A7.779,7.779,0,0,1,11.669,6.3a1.3,1.3,0,0,0,2.593,0,7.779,7.779,0,0,1,6.366,6.366,1.3,1.3,0,0,0,0,2.593,7.779,7.779,0,0,1-6.366,6.366Z" transform="translate(0 -0.999)" fill="#f59595"/>
</svg>
