<svg xmlns="http://www.w3.org/2000/svg" width="18.854" height="18.786" viewBox="0 0 18.854 18.786">
  <g id="Group_21" data-name="Group 21" transform="translate(19126.004 11364.942)">
    <path id="Path_19" data-name="Path 19" d="M22.148,7.925,18.919,4.7a2.357,2.357,0,0,0-3.134-.082L5.179,15.22a2.357,2.357,0,0,0-.672,1.426L4,21.559a1.175,1.175,0,0,0,1.178,1.284h.106L10.2,22.4a2.357,2.357,0,0,0,1.426-.672L22.23,11.119a2.262,2.262,0,0,0-.082-3.193ZM9.987,20.039l-3.535.33.318-3.535,6.658-6.575,3.182,3.182Zm8.154-8.178L14.983,8.7l2.3-2.357L20.5,9.563Z" transform="translate(-19130 -11369)" fill="#1790d1"/>
  </g>
</svg>
