<svg id="telegram-1" xmlns="http://www.w3.org/2000/svg" width="23.197" height="23.197" viewBox="0 0 23.197 23.197">
  <path id="Path_20" data-name="Path 20" d="M11.6,23.2A11.6,11.6,0,1,0,0,11.6,11.6,11.6,0,0,0,11.6,23.2Z" fill="#34aadf"/>
  <path id="Path_21" data-name="Path 21" d="M87.523,150.78s5.8-2.38,7.811-3.218c.771-.335,3.386-1.408,3.386-1.408s1.207-.469,1.106.67c-.034.469-.3,2.112-.57,3.889-.4,2.514-.838,5.263-.838,5.263s-.067.771-.637.905a2.757,2.757,0,0,1-1.676-.6c-.134-.1-2.514-1.609-3.386-2.347a.635.635,0,0,1,.033-1.073c1.207-1.106,2.648-2.481,3.52-3.352.4-.4.8-1.341-.872-.2-2.38,1.643-4.727,3.185-4.727,3.185a1.97,1.97,0,0,1-1.542.033c-1.006-.3-2.179-.7-2.179-.7S86.149,151.316,87.523,150.78Z" transform="translate(-82.696 -139.282)" fill="#fff"/>
</svg>
