<svg xmlns="http://www.w3.org/2000/svg" width="23.654" height="19.495" viewBox="0 0 23.654 19.495">
  <path id="XMLID_1186_" d="M23.854,10.19a1.564,1.564,0,0,1-1.56,1.56H7.972a1.56,1.56,0,0,1,0-3.119H22.294A1.564,1.564,0,0,1,23.854,10.19ZM7.972,19.807h8.136a1.56,1.56,0,1,0,0-3.119H7.972a1.56,1.56,0,1,0,0,3.119Zm11.489,4.939H7.972a1.56,1.56,0,0,0,0,3.119H19.461a1.564,1.564,0,0,0,1.56-1.56A1.548,1.548,0,0,0,19.461,24.746ZM1.916,8.5a1.714,1.714,0,0,0-1.2.494,1.74,1.74,0,0,0-.52,1.2,1.686,1.686,0,0,0,1.69,1.69,1.691,1.691,0,0,0,1.2-2.885A1.609,1.609,0,0,0,1.916,8.5Zm0,8.058a1.714,1.714,0,0,0-1.2.494,1.74,1.74,0,0,0-.52,1.2,1.686,1.686,0,0,0,1.69,1.69,1.691,1.691,0,0,0,1.2-2.885A1.609,1.609,0,0,0,1.916,16.558Zm0,8.058a1.714,1.714,0,0,0-1.2.494,1.74,1.74,0,0,0-.52,1.2,1.686,1.686,0,0,0,1.69,1.69,1.691,1.691,0,0,0,1.2-2.885A1.609,1.609,0,0,0,1.916,24.616Z" transform="translate(-0.2 -8.5)" fill="#5fa399"/>
</svg>
